<?xml version="1.0" encoding="UTF-8"?>
<svg id="_Слой_2" data-name="Слой 2" xmlns="http://www.w3.org/2000/svg" viewBox="0 0 2762.78 2779.68">
  <defs>
    <style>
      .cls-1, .cls-2 {
        fill: #fff;
      }

      .cls-3 {
        letter-spacing: 0em;
      }

      .cls-4 {
        letter-spacing: 0em;
      }

      .cls-2 {
        font-family: PlanetN, 'Planet N';
        font-size: 200px;
      }

      .cls-5 {
        letter-spacing: -.03em;
      }

      .cls-6 {
        letter-spacing: -.12em;
      }
    </style>
  </defs>
  <g id="UltraWolf_Logo" data-name="UltraWolf Logo">
    <g id="Elements">
      <path id="Face" class="cls-1" d="M2481.39,1500.71l-357.19-200.39,245.06,32.52-578.8-508.51-354.61,536.11-54.47,315.02-54.47-315.02-354.61-536.11-578.85,508.51,245.12-32.52-357.19,200.39,370.21,167.84h-172.08l432.83,243c37.44,144.77,74.87,289.54,112.31,434.32,98.21,51.3,196.41,102.59,294.62,153.88,20.7-19.16,41.4-38.31,62.11-57.47h-26.63l-124.09-170.33,23.66-39.75h254.12l23.66,39.75-124.15,170.33h-26.57c21.12,19.24,42.24,38.48,63.37,57.72,98.04-50.63,196.08-101.25,294.12-151.88,37.18-145.52,74.37-291.05,111.55-436.57l432.83-243h-172.08l370.21-167.84Zm-1361.21,15.01l-105.58,11.29-123.21-139.02s209.25,41.32,215.13,43.18c5.78,1.89,142.57,195.5,144.69,198.53l-131.03-113.98Zm628,11.29l-105.58-11.29-131.03,113.98s.03-.06,.06-.12c.09-.09,.18-.21,.3-.39,1.03-1.44,4.15-5.88,8.84-12.52,.82-1.17,1.7-2.4,2.64-3.72,1.21-1.71,2.51-3.54,3.88-5.49,.36-.51,.73-1.02,1.09-1.53,5.91-8.28,13-18.32,20.85-29.3,.48-.69,.97-1.38,1.48-2.07,.48-.69,.97-1.38,1.49-2.1,.48-.69,1-1.41,1.51-2.1,5.03-7.09,10.3-14.47,15.72-22.04l4-5.58c4.64-6.49,9.36-13.06,14.06-19.58,.85-1.17,1.72-2.37,2.51-3.54,2.21-3.06,4.42-6.13,6.6-9.16,.81-1.08,1.57-2.13,2.33-3.21,.52-.72,1.06-1.47,1.61-2.22,.88-1.2,1.73-2.4,2.57-3.57,1.06-1.47,2.12-2.94,3.18-4.41,1.09-1.47,2.12-2.91,3.15-4.35,.55-.72,1.06-1.44,1.57-2.16,1.06-1.44,2.09-2.85,3.09-4.23,.15-.24,.33-.48,.55-.72,.64-.87,1.27-1.74,1.88-2.61,13.24-18.14,24.63-33.51,31.81-42.7,.33-.39,.61-.78,.91-1.14,.24-.3,.48-.63,.76-.93,.45-.6,.91-1.14,1.3-1.65,.27-.3,.48-.6,.73-.87,.39-.48,.76-.93,1.09-1.32,.72-.84,1.33-1.56,1.85-2.07l.36-.36c.22-.21,.39-.36,.55-.48,.06-.06,.15-.12,.21-.15,.06-.06,.09-.09,.15-.09,5.88-1.86,215.07-43.18,215.07-43.18l-123.15,139.02Z"/>
      <polygon id="Right_Ear" data-name="Right Ear" class="cls-1" points="1869.87 648.24 2278.16 .01 2302.77 1188.99 1869.87 648.24"/>
      <polygon id="Left_Ear" data-name="Left Ear" class="cls-1" points="911.09 648.24 502.85 0 478.18 1189.01 911.09 648.24"/>
    </g>
    <text class="cls-2" transform="translate(0 2743.28)"><tspan x="0" y="0">U</tspan><tspan class="cls-6" x="187.2" y="0">l</tspan><tspan class="cls-4" x="346.6" y="0">tr</tspan><tspan class="cls-6" x="704.39" y="0">a</tspan><tspan class="cls-5" x="857.19" y="0">W</tspan><tspan class="cls-3" x="1115.39" y="0">olf Design</tspan></text>
  </g>
</svg>